<?xml version="1.0" standalone="no"?>
<!DOCTYPE svg PUBLIC "-//W3C//DTD SVG 20010904//EN"
 "http://www.w3.org/TR/2001/REC-SVG-20010904/DTD/svg10.dtd">
<svg version="1.0" xmlns="http://www.w3.org/2000/svg"
 width="96.000000pt" height="96.000000pt" viewBox="0 0 96.000000 96.000000"
 preserveAspectRatio="xMidYMid meet">
<metadata>
Created by potrace 1.11, written by Peter Selinger 2001-2013
</metadata>
<g transform="translate(0.000000,96.000000) scale(0.100000,-0.100000)"
fill="#000000" stroke="none">
<path d="M0 480 l0 -480 480 0 480 0 0 480 0 480 -480 0 -480 0 0 -480z m884
290 c19 -1 20 -2 4 -14 -12 -8 -15 -20 -11 -37 6 -22 5 -23 -11 -10 -15 12
-21 13 -38 2 -19 -12 -20 -11 -15 10 4 15 0 27 -11 35 -16 12 -15 13 5 14 14
0 24 8 29 23 l7 22 10 -22 c6 -13 19 -23 31 -23z m-213 9 c15 -29 6 -97 -20
-151 -25 -52 -84 -122 -271 -321 -160 -171 -149 -177 -153 78 l-2 170 32 58
31 57 -26 0 c-58 -1 -152 -64 -168 -112 -3 -12 0 -38 7 -60 16 -50 1 -72 -31
-43 -29 27 -26 81 8 136 38 59 108 96 204 109 106 14 103 15 78 -26 -60 -96
-64 -111 -67 -264 l-4 -145 116 120 c64 66 137 149 163 185 46 63 47 67 48
140 1 41 2 78 3 83 3 16 41 6 52 -14z m162 -189 c17 0 18 -2 6 -17 -8 -9 -13
-25 -11 -35 3 -17 1 -18 -18 -8 -16 9 -25 8 -37 -1 -13 -11 -14 -10 -11 7 1
12 -3 28 -11 37 -12 15 -11 17 7 17 13 0 23 9 28 23 l7 22 10 -22 c6 -13 19
-23 30 -23z m-123 -125 c0 -10 10 -15 27 -15 25 0 26 -1 8 -20 -10 -11 -15
-28 -12 -39 4 -17 2 -18 -14 -8 -15 9 -24 9 -40 -1 -19 -12 -20 -11 -14 8 4
14 1 28 -11 41 -16 18 -16 19 9 19 17 0 27 5 27 15 0 8 5 15 10 15 6 0 10 -7
10 -15z m-120 -121 c0 -9 10 -14 28 -14 23 -1 24 -2 10 -11 -10 -5 -18 -22
-18 -36 0 -21 -3 -23 -14 -14 -11 10 -20 10 -36 1 -20 -11 -21 -10 -15 10 5
15 1 26 -12 35 -17 14 -17 14 5 15 15 0 26 7 29 20 6 22 23 18 23 -6z m-140
-120 c0 -9 10 -14 27 -14 27 0 27 0 6 -15 -15 -11 -19 -21 -15 -37 5 -21 4
-22 -12 -9 -13 11 -20 11 -28 3 -17 -17 -31 -15 -24 4 4 10 -1 25 -10 35 -16
18 -16 19 5 19 14 0 25 7 28 20 6 22 23 18 23 -6z"/>
</g>
</svg>
