<?xml version="1.0" standalone="no"?>
<!DOCTYPE svg PUBLIC "-//W3C//DTD SVG 20010904//EN"
 "http://www.w3.org/TR/2001/REC-SVG-20010904/DTD/svg10.dtd">
<svg version="1.0" xmlns="http://www.w3.org/2000/svg"
 width="120.000000pt" height="120.000000pt" viewBox="0 0 120.000000 120.000000"
 preserveAspectRatio="xMidYMid meet">
<metadata>
Created by potrace 1.11, written by Peter Selinger 2001-2013
</metadata>
<g transform="translate(0.000000,120.000000) scale(0.100000,-0.100000)"
fill="#000000" stroke="none">
<path d="M640 1108 c-53 -60 -69 -85 -58 -96 14 -14 13 -58 -1 -76 -7 -8 -25
-17 -40 -21 -23 -5 -27 -10 -23 -33 4 -31 -23 -62 -55 -65 -14 -1 -18 -7 -15
-26 4 -33 -17 -61 -46 -64 -14 -1 -22 -7 -20 -17 6 -44 -30 -78 -70 -66 -14 5
-31 -11 -69 -62 -29 -37 -61 -87 -72 -112 -89 -195 113 -405 315 -329 72 27
92 49 268 288 46 62 52 76 41 88 -50 50 -2 128 65 104 28 -9 31 -7 109 97 45
59 81 110 81 115 0 10 -38 47 -48 47 -19 0 -51 -40 -266 -327 -147 -197 -236
-308 -256 -318 -102 -53 -223 10 -237 122 -4 35 -1 60 9 81 9 16 115 163 237
325 132 177 221 305 221 318 0 20 -24 48 -42 49 -4 0 -16 -10 -28 -22z"/>
<path d="M480 1015 c-18 -22 -8 -47 27 -67 28 -17 32 -17 47 -3 22 22 20 40
-6 65 -26 24 -51 26 -68 5z"/>
<path d="M858 1023 c6 -2 18 -2 25 0 6 3 1 5 -13 5 -14 0 -19 -2 -12 -5z"/>
<path d="M795 991 c-3 -5 -1 -12 5 -16 5 -3 10 1 10 9 0 18 -6 21 -15 7z"/>
<path d="M835 980 c3 -5 8 -10 11 -10 2 0 4 5 4 10 0 6 -5 10 -11 10 -5 0 -7
-4 -4 -10z"/>
<path d="M990 980 c0 -5 5 -10 10 -10 6 0 10 5 10 10 0 6 -4 10 -10 10 -5 0
-10 -4 -10 -10z"/>
<path d="M824 936 c-9 -23 7 -38 26 -26 13 8 13 11 -2 26 -16 17 -18 17 -24 0z"/>
<path d="M410 920 c-16 -16 -18 -25 -10 -40 17 -31 48 -44 76 -31 32 14 30 44
-2 70 -33 26 -39 26 -64 1z"/>
<path d="M752 928 c-17 -17 -15 -35 4 -42 22 -8 22 -8 34 14 8 15 6 21 -8 29
-13 7 -22 7 -30 -1z"/>
<path d="M673 884 c-7 -19 2 -28 22 -21 19 8 19 23 0 31 -9 3 -18 -1 -22 -10z"/>
<path d="M464 667 c-161 -215 -185 -252 -179 -283 2 -10 4 -26 4 -35 1 -23 42
-66 74 -78 66 -25 120 -1 174 78 18 25 39 55 48 66 8 11 42 56 75 100 33 44
63 85 67 90 5 6 30 39 56 74 l47 63 -27 24 c-15 13 -57 36 -93 50 -36 14 -72
32 -80 39 -13 11 -36 -15 -166 -188z m196 77 c6 -14 14 -23 19 -20 5 3 14 0
20 -8 14 -16 3 -49 -31 -89 l-23 -28 -42 45 -41 44 24 33 c41 56 60 62 74 23z
m-96 -83 c3 -4 -1 -17 -9 -27 -8 -10 -14 -26 -14 -34 0 -9 8 -4 21 13 26 35
45 17 21 -20 -20 -30 -8 -44 13 -15 8 12 19 22 25 22 16 0 9 -24 -19 -61 -26
-35 -28 -36 -47 -20 -11 9 -31 29 -44 43 l-23 27 28 40 c30 41 39 48 48 32z
m-47 -139 c30 -54 31 -60 16 -75 -15 -15 -18 -14 -45 4 -32 23 -35 17 -13 -24
11 -21 12 -34 5 -48 -6 -10 -13 -19 -16 -19 -3 0 -27 15 -54 33 -46 31 -49 35
-36 53 14 19 15 19 38 -3 36 -34 43 -28 17 13 -20 32 -20 37 -6 51 14 15 18
15 41 0 36 -24 40 -21 17 12 -19 26 -20 61 -2 61 3 0 21 -26 38 -58z"/>
<path d="M611 717 c-9 -12 -8 -16 3 -20 19 -7 27 4 17 21 -6 10 -10 10 -20 -1z"/>
<path d="M645 679 c-10 -15 3 -25 16 -12 7 7 7 13 1 17 -6 3 -14 1 -17 -5z"/>
<path d="M804 845 c-4 -9 -2 -21 4 -27 15 -15 44 -1 40 19 -4 23 -36 29 -44 8z"/>
<path d="M740 840 c0 -5 5 -10 10 -10 6 0 10 5 10 10 0 6 -4 10 -10 10 -5 0
-10 -4 -10 -10z"/>
<path d="M347 828 c-26 -14 -20 -42 13 -66 l30 -22 20 20 c25 25 25 33 3 52
-26 22 -47 27 -66 16z"/>
<path d="M296 725 c-18 -18 -11 -41 16 -56 24 -13 54 10 45 35 -10 26 -44 38
-61 21z"/>
<path d="M816 597 c-25 -19 -17 -58 16 -77 57 -31 92 31 40 69 -35 25 -33 25
-56 8z"/>
<path d="M880 490 c-8 -5 -24 -7 -35 -5 -15 4 -29 -9 -60 -52 -22 -31 -45 -61
-51 -67 -6 -6 -16 -21 -22 -32 -10 -19 -7 -22 38 -33 60 -15 127 -72 161 -135
13 -25 26 -46 29 -46 3 0 16 53 28 117 13 65 25 129 28 143 3 14 9 40 14 59 8
31 8 33 -13 27 -49 -15 -57 -14 -79 9 -17 16 -28 21 -38 15z"/>
</g>
</svg>
