<?xml version="1.0" encoding="utf-8"?><svg xmlns="http://www.w3.org/2000/svg" xmlns:xlink="http://www.w3.org/1999/xlink"><symbol viewBox="0 0 16 16" id="add" xmlns="http://www.w3.org/2000/svg"><path fill-rule="evenodd" clip-rule="evenodd" d="M8 16A8 8 0 108 0a8 8 0 000 16zM7 9H4V7h3V4h2v3h3v2H9v3H7V9z"/></symbol><symbol viewBox="0 0 11 8" id="arrow" xmlns="http://www.w3.org/2000/svg"><path fill-rule="evenodd" clip-rule="evenodd" d="M.146 4.036a.5.5 0 010-.708L3.328.146a.5.5 0 11.708.708L1.707 3.182H10.5v1H1.707L4.036 6.51a.5.5 0 11-.708.708L.146 4.036z"/></symbol><symbol viewBox="0 0 30 30" id="arrow-circle" xmlns="http://www.w3.org/2000/svg"><circle cx="15" cy="15" r="15"/><path d="M21.032 15.63v-1.628H9.63v1.629h11.403z"/><path d="M14.628 10.821l-1.12-1.183L8 14.815 13.508 20l1.12-1.183-4.184-4.001 4.184-3.995z"/></symbol><symbol viewBox="0 0 14 16" id="calendar" xmlns="http://www.w3.org/2000/svg"><path fill-rule="evenodd" clip-rule="evenodd" d="M3 0h1v1H3V0zm0 2V1H1.5A1.5 1.5 0 000 2.5V5h1v1H0v8.5A1.5 1.5 0 001.5 16h11a1.5 1.5 0 001.5-1.5V6h-1V5h1V2.5A1.5 1.5 0 0012.5 1H11V0h-1v1H4v1H3zm7 0V1h1v1h-1zm0 0v2h1V2h1.5a.5.5 0 01.5.5V5H1V2.5a.5.5 0 01.5-.5H3v2h1V2h6zm3 4H1v8.5a.5.5 0 00.5.5h11a.5.5 0 00.5-.5V6z"/></symbol><symbol viewBox="0 0 10 5" id="caret-down" xmlns="http://www.w3.org/2000/svg"><path fill-rule="evenodd" clip-rule="evenodd" d="M10 0L5 5 0 0h10z"/></symbol><symbol viewBox="0 0 18 18" id="check-checked" xmlns="http://www.w3.org/2000/svg"><path d="M0 0h17.936v18H0z"/><path d="M12.453 5l1.497 1.502-6.305 6.328-3.66-3.672 1.498-1.502 2.162 2.17L12.453 5z"/></symbol><symbol viewBox="0 0 16 16" id="close" xmlns="http://www.w3.org/2000/svg"><g clip-path="url(#agclip0)"><path fill-rule="evenodd" clip-rule="evenodd" d="M8 16A8 8 0 108 0a8 8 0 000 16zM4.464 5.879L5.88 4.464 8 6.586l2.121-2.122 1.415 1.415L9.414 8l2.122 2.121-1.415 1.415L8 9.414l-2.121 2.122-1.415-1.415L6.586 8 4.464 5.879z"/></g><defs><clipPath id="agclip0"><path d="M0 0h16v16H0z"/></clipPath></defs></symbol><symbol viewBox="0 0 11 11" id="cross" xmlns="http://www.w3.org/2000/svg"><path fill-rule="evenodd" clip-rule="evenodd" d="M9.548 0L11 1.452 6.952 5.5 11 9.548 9.548 11 5.5 6.952 1.452 11 0 9.548 4.048 5.5 0 1.452 1.452 0 5.5 4.048 9.548 0z"/></symbol><symbol viewBox="0 0 74 9" id="delimiter" xmlns="http://www.w3.org/2000/svg"><path fill-rule="evenodd" clip-rule="evenodd" d="M37.243 0L33 4.243l4.243 4.242 4.242-4.242L37.243 0zM0 4.914h27v-1H0v1zm47 0h27v-1H47v1z"/></symbol><symbol viewBox="0 0 33 35" id="facebook" xmlns="http://www.w3.org/2000/svg"><path fill-rule="evenodd" clip-rule="evenodd" d="M16.5 35C25.613 35 33 27.613 33 18.5S25.613 2 16.5 2 0 9.387 0 18.5 7.387 35 16.5 35zm2.531-26l2.334.004c.203 0 .367.164.367.367v2.748a.367.367 0 01-.367.367h-1.573c-1.084 0-1.282.423-1.282 1.255v1.731h2.745a.367.367 0 01.367.367v2.96a.367.367 0 01-.368.367H18.51v7.467a.367.367 0 01-.367.367h-3.062a.367.367 0 01-.367-.367v-7.467h-2.347a.367.367 0 01-.367-.367v-2.96c0-.202.164-.367.367-.367h2.347V13.43c0-2.691 1.695-4.43 4.317-4.43z"/></symbol><symbol viewBox="0 0 10 18" id="facebook-simple" xmlns="http://www.w3.org/2000/svg"><path d="M9.365.004L7.031 0C4.409 0 2.714 1.739 2.714 4.43v2.042H.367A.367.367 0 000 6.84V9.8c0 .203.164.367.367.367h2.347v7.467c0 .203.164.367.367.367h3.062a.367.367 0 00.367-.367v-7.467h2.744a.367.367 0 00.367-.367l.001-2.96a.368.368 0 00-.367-.367H6.51V4.741c0-.832.198-1.255 1.282-1.255h1.573a.367.367 0 00.367-.367V.37a.367.367 0 00-.367-.367z"/></symbol><symbol viewBox="0 0 25 17" id="flag-en" xmlns="http://www.w3.org/2000/svg"><path d="M25 0H0v16.667h25V0z"/><path d="M14.062 0h-3.125v6.77H0v3.126h10.937v6.77h3.125v-6.77H25V6.77H14.062V0z"/><path d="M19.228 11.232L25 14.439v-3.207h-5.772zm-4.01 0L25 16.666V15.13l-7.016-3.898h-2.766zm7.176 5.434l-7.176-3.987v3.987h7.176z"/><path d="M15.217 11.232L25 16.666V15.13l-7.016-3.898h-2.767z"/><path d="M15.217 11.232L25 16.666V15.13l-7.016-3.898h-2.767zM4.411 11.232L0 13.682v-2.45h4.411zm5.371.691v4.743H1.245l8.537-4.743zM7.016 11.232L0 15.13v1.536l9.783-5.434H7.016zM5.772 5.435L0 2.228v3.207h5.772zm4.011 0L0 0v1.537l7.016 3.898h2.767zM2.606 0l7.176 3.987V0H2.606z"/><path d="M9.783 5.435L0 0v1.537l7.016 3.898h2.767z"/><path d="M9.783 5.435L0 0v1.537l7.016 3.898h2.767zM20.59 5.435L25 2.985v2.45h-4.41zm-5.373-.691V0h8.538l-8.538 4.744zM17.984 5.435L25 1.537V0l-9.783 5.435h2.767z"/></symbol><symbol viewBox="0 0 25 17" id="flag-ru" xmlns="http://www.w3.org/2000/svg"><path d="M25 5.46H0V.43A.43.43 0 01.431 0H24.57c.238 0 .431.193.431.431V5.46zM24.569 16.38H.43a.431.431 0 01-.43-.433V10.92h25v5.028a.431.431 0 01-.431.431zM25 5.46H0v5.46h25V5.46z"/></symbol><symbol viewBox="0 0 19 13" id="hamburger" xmlns="http://www.w3.org/2000/svg"><path d="M0 0h19v1.5H0zm0 5.7h19v1.5H0zm0 5.7h19v1.5H0z"/></symbol><symbol viewBox="0 0 16 16" id="info" xmlns="http://www.w3.org/2000/svg"><path fill-rule="evenodd" clip-rule="evenodd" d="M8 16A8 8 0 108 0a8 8 0 000 16z"/><path fill-rule="evenodd" clip-rule="evenodd" d="M9.222 13H7V7h2.222v6zM8.111 5c.614 0 1.111-.448 1.111-1s-.497-1-1.11-1C7.496 3 7 3.448 7 4s.497 1 1.111 1z"/></symbol><symbol viewBox="0 0 33 33" id="instagram" xmlns="http://www.w3.org/2000/svg"><path fill-rule="evenodd" clip-rule="evenodd" d="M16.5 33C25.613 33 33 25.613 33 16.5S25.613 0 16.5 0 0 7.387 0 16.5 7.387 33 16.5 33zM13.692 8h6.366a4.697 4.697 0 014.692 4.692v6.366a4.697 4.697 0 01-4.692 4.692h-6.366A4.697 4.697 0 019 19.058v-6.366A4.697 4.697 0 0113.692 8zm6.366 14.166a3.108 3.108 0 003.108-3.108v-6.366a3.108 3.108 0 00-3.108-3.108h-6.366a3.108 3.108 0 00-3.108 3.108v6.366a3.108 3.108 0 003.108 3.108h6.366zm-3.183-10.364a4.078 4.078 0 00-4.074 4.073 4.078 4.078 0 004.074 4.073 4.078 4.078 0 004.073-4.073 4.078 4.078 0 00-4.073-4.073zm0 6.562a2.49 2.49 0 110-4.978 2.49 2.49 0 010 4.978zm5.058-6.532a.976.976 0 11-1.953 0 .976.976 0 011.953 0z"/></symbol><symbol viewBox="0 0 16 16" id="instagram-simple" xmlns="http://www.w3.org/2000/svg"><path d="M11.058 0H4.692A4.697 4.697 0 000 4.692v6.366a4.697 4.697 0 004.692 4.692h6.366a4.697 4.697 0 004.692-4.692V4.692A4.697 4.697 0 0011.058 0zm3.108 11.058a3.108 3.108 0 01-3.108 3.108H4.692a3.108 3.108 0 01-3.108-3.108V4.692a3.108 3.108 0 013.108-3.108h6.366a3.108 3.108 0 013.108 3.108v6.366z"/><path d="M7.875 3.802a4.078 4.078 0 00-4.074 4.073 4.078 4.078 0 004.074 4.073 4.078 4.078 0 004.073-4.073 4.078 4.078 0 00-4.073-4.073zm0 6.562a2.49 2.49 0 110-4.978 2.49 2.49 0 010 4.978zm4.081-5.556a.976.976 0 100-1.952.976.976 0 000 1.952z"/></symbol><symbol viewBox="0 0 39 39" id="layout-circle" xmlns="http://www.w3.org/2000/svg"><circle cx="19.5" cy="19.5" r="14.349"/><circle cx="19.5" cy="19.5" r="17.5"/></symbol><symbol viewBox="0 0 34 33" id="layout-class" xmlns="http://www.w3.org/2000/svg"><path d="M0 18h15.3v12H0zm0 13h15.3v2H0zm18.7-13H34v12H18.7zm0 13H34v2H18.7zM0 0h15.3v12H0zm0 13h15.3v2H0zM18.7 0H34v12H18.7zm0 13H34v2H18.7z"/></symbol><symbol viewBox="0 0 36 33" id="layout-theater" xmlns="http://www.w3.org/2000/svg"><path d="M0 0h36v14H0zm0 19h36v2H0zm0 4h36v2H0zm0 4h36v2H0zm0 4h36v2H0z"/></symbol><symbol viewBox="0 0 37 35" id="layout-u" xmlns="http://www.w3.org/2000/svg"><path d="M0 35h20.602C29.658 35 37 27.165 37 17.5S29.659 0 20.602 0H0v9.872h20.602c3.948 0 7.148 3.415 7.148 7.628s-3.2 7.628-7.148 7.628H0V35z"/></symbol><symbol viewBox="0 0 19 27" id="location" xmlns="http://www.w3.org/2000/svg"><path d="M9.5 0C4.248 0 0 4.226 0 9.45 0 16.538 9.5 27 9.5 27S19 16.538 19 9.45C19 4.226 14.752 0 9.5 0zm0 12.825A3.385 3.385 0 016.107 9.45 3.385 3.385 0 019.5 6.075a3.385 3.385 0 013.393 3.375A3.385 3.385 0 019.5 12.825z"/></symbol><symbol viewBox="0 0 42 33" id="logo" xmlns="http://www.w3.org/2000/svg"><path d="M9.207 31.838l-.75-10.295c-.16-2.08-.215-3.467-.215-4.16 0-1.92.268-3.68.804-5.281.535-1.6 1.552-3.36 2.944-5.175-1.66 0-3.372.374-5.086 1.175-1.713.799-2.997 1.707-3.8 2.72-.802 1.014-1.177 2.028-1.177 3.094 0 .48.16.96.428 1.494.375.692.534 1.226.534 1.546 0 .32-.052.587-.267.8-.213.214-.48.267-.748.267-.482 0-.857-.214-1.232-.693C.215 16.743 0 15.942 0 15.035c0-1.707.695-3.36 1.98-4.96 1.338-1.6 3.105-2.774 5.408-3.521 1.443-.48 3.585-.8 6.368-1.013.749-.053 1.553-.107 2.302-.213-1.927 2.827-3.159 5.174-3.747 7.04-.589 1.92-.857 4.48-.857 7.681 0 2.454.108 4.694.376 6.721l4.068-4.321 3.479-3.573c3.587-3.68 5.994-6.508 7.226-8.64.91-1.549 1.391-2.988 1.391-4.27 0-.746-.16-1.492-.48-2.345-.215-.587-.323-.96-.323-1.28 0-.374.108-.695.428-1.014A1.467 1.467 0 0128.638.9c.534 0 1.016.32 1.392.853.374.587.535 1.441.535 2.614 0 1.174-.215 2.347-.696 3.68-.482 1.28-1.5 2.934-3.051 4.908-1.608 1.974-4.017 4.64-7.227 7.894A350.291 350.291 0 009.207 31.838zm16.47-6.104l-1.896 1.418.71-2.268-1.894-1.37h2.37l.71-2.266.711 2.267h2.37l-1.896 1.369.71 2.268-1.895-1.418zm5.903-5.504l-1.942 1.417.759-2.266-1.944-1.37h2.37l.757-2.268.71 2.268h2.37l-1.894 1.37.712 2.266-1.898-1.417zm4.67-6.959l-1.944 1.371.76-2.22-1.944-1.418h2.417l.71-2.22.712 2.22h2.37l-1.896 1.418.71 2.22-1.896-1.37zm2.48-8.784l-1.895 1.417.71-2.267-1.895-1.37h2.37L38.73 0l.71 2.267h2.418l-1.944 1.37.758 2.267-1.943-1.417zM18.876 31.572l-1.943 1.417.759-2.267-1.944-1.37h2.369l.759-2.268.71 2.268h2.37l-1.895 1.37.712 2.267-1.897-1.417z"/></symbol><symbol viewBox="0 0 30 24" id="logo-colorful" xmlns="http://www.w3.org/2000/svg"><path d="M6.576 23.053l-.535-7.455c-.115-1.505-.154-2.51-.154-3.011 0-1.39.191-2.665.574-3.824.382-1.159 1.109-2.433 2.104-3.747-1.186 0-2.41.27-3.633.85-1.224.579-2.141 1.236-2.715 1.97-.573.734-.84 1.468-.84 2.24 0 .348.114.695.305 1.082.268.501.382.887.382 1.12 0 .23-.038.425-.19.58-.154.153-.345.192-.536.192-.344 0-.612-.155-.88-.502C.154 12.123 0 11.543 0 10.886c0-1.235.497-2.432 1.415-3.59.955-1.16 2.217-2.01 3.862-2.55 1.031-.348 2.56-.58 4.549-.734.535-.038 1.11-.077 1.644-.154-1.376 2.047-2.256 3.746-2.677 5.097-.42 1.39-.611 3.245-.611 5.562 0 1.777.077 3.399.268 4.867l2.906-3.13 2.485-2.587c2.562-2.665 4.281-4.712 5.16-6.256.651-1.12.995-2.163.995-3.09 0-.541-.114-1.081-.344-1.7-.153-.424-.23-.695-.23-.926 0-.271.077-.503.306-.735a1.04 1.04 0 01.727-.308c.382 0 .726.231.995.617.267.426.382 1.044.382 1.893 0 .85-.153 1.7-.497 2.665-.345.927-1.071 2.124-2.18 3.553-1.148 1.43-2.868 3.36-5.162 5.716a252.173 252.173 0 00-7.416 7.956v.001zM18.34 18.633l-1.354 1.027.507-1.642-1.353-.992h1.693l.507-1.64.508 1.64h1.693l-1.354.992.507 1.642-1.354-1.027zm4.217-3.985l-1.387 1.026.542-1.641-1.389-.992h1.693l.541-1.642.508 1.642h1.692l-1.353.992.509 1.64-1.356-1.025zm3.336-5.038l-1.388.992.542-1.608-1.388-1.026h1.726l.508-1.607.508 1.607h1.693L26.74 8.994l.508 1.608-1.354-.993zm1.77-6.36l-1.352 1.025.507-1.641-1.354-.992h1.692L27.663 0l.509 1.642h1.726l-1.388.992.54 1.64-1.387-1.025zM13.482 22.86l-1.387 1.026.542-1.64-1.389-.993h1.692l.542-1.642.508 1.642h1.693l-1.354.992.509 1.641-1.356-1.026z"/></symbol><symbol viewBox="0 0 13 72" id="mouse" xmlns="http://www.w3.org/2000/svg"><rect x="5" y="12" width="2" height="12" rx="1"/><circle cx="6" cy="9" r="1"/><circle cx="6" cy="5" r="1"/><circle cx="6" cy="1" r="1"/><circle cx="6" cy="63" r="1" transform="rotate(-180 6 63)"/><circle cx="6" cy="67" r="1" transform="rotate(-180 6 67)"/><circle cx="6" cy="71" r="1" transform="rotate(-180 6 71)"/><path d="M6.338 34C2.843 34 0 36.888 0 40.437v5.126C0 49.113 2.843 52 6.338 52c3.494 0 6.337-2.879 6.337-6.417v-5.146c0-3.55-2.843-6.437-6.337-6.437zm5.145 11.583c0 2.881-2.308 5.225-5.145 5.225-2.838 0-5.146-2.353-5.146-5.245v-5.126c0-2.892 2.308-5.245 5.146-5.245 2.837 0 5.145 2.353 5.145 5.245v5.146z"/><path d="M6.337 38.927a.596.596 0 00-.596.596v2.086a.596.596 0 101.192 0v-2.086a.596.596 0 00-.596-.596z"/></symbol><symbol viewBox="0 0 33 33" id="ok" xmlns="http://www.w3.org/2000/svg"><path fill-rule="evenodd" clip-rule="evenodd" d="M33 16.5C33 25.613 25.613 33 16.5 33S0 25.613 0 16.5 7.387 0 16.5 0 33 7.387 33 16.5zm-16.234.494a4.997 4.997 0 10-4.997-4.997 5.003 5.003 0 004.997 4.997zm0-7.688a2.69 2.69 0 110 5.382 2.69 2.69 0 010-5.382zm5.766 8.441a1.937 1.937 0 01-.872 1.615 8.84 8.84 0 01-2.25 1.074c-.136.041-.276.08-.42.117l2.32 2.27.037.037A1.538 1.538 0 0119.138 25l-2.372-2.456-2.368 2.451a1.538 1.538 0 11-2.179-2.17l2.324-2.271a7.655 7.655 0 01-.42-.117 8.875 8.875 0 01-2.252-1.076 1.938 1.938 0 01-.87-1.614 1.396 1.396 0 01.782-1.272 1.468 1.468 0 011.537.144 5.85 5.85 0 006.892 0 1.46 1.46 0 011.538-.144c.485.237.79.733.782 1.272z"/></symbol><symbol viewBox="0 0 12 19" id="ok-simple" xmlns="http://www.w3.org/2000/svg"><path d="M5.766 9.994A4.997 4.997 0 10.769 4.997a5.003 5.003 0 004.997 4.997zm0-7.688a2.69 2.69 0 110 5.382 2.69 2.69 0 010-5.382z"/><path d="M10.66 12.362c.543-.358.87-.964.871-1.615a1.395 1.395 0 00-.781-1.272 1.46 1.46 0 00-1.538.145 5.85 5.85 0 01-6.892 0 1.468 1.468 0 00-1.537-.145c-.485.237-.79.732-.783 1.271.001.65.328 1.257.871 1.615a8.876 8.876 0 002.253 1.076c.135.042.275.081.419.117l-2.324 2.272a1.538 1.538 0 102.18 2.17l2.367-2.452L8.138 18a1.538 1.538 0 102.171-2.177l-2.32-2.27c.145-.037.285-.076.421-.117a8.84 8.84 0 002.25-1.074z"/></symbol><symbol viewBox="0 0 13 13" id="phone" xmlns="http://www.w3.org/2000/svg"><path d="M12.394 2.054L10.714.375a1.275 1.275 0 00-1.81 0L7.096 2.183a1.275 1.275 0 000 1.81l1.322 1.322a6.213 6.213 0 01-1.27 1.832 6.237 6.237 0 01-1.831 1.275L3.995 7.1a1.275 1.275 0 00-1.81 0L.375 8.906a1.276 1.276 0 000 1.811l1.678 1.677a2.074 2.074 0 001.796.578c2.127-.35 4.236-1.482 5.939-3.183 1.7-1.699 2.83-3.806 3.185-5.94a2.076 2.076 0 00-.579-1.795z"/></symbol><symbol viewBox="0 0 11 11" id="plus" xmlns="http://www.w3.org/2000/svg"><path d="M4.4 0h2.2v11H4.4z"/><path d="M0 4.4h11v2.2H0z"/></symbol><symbol viewBox="0 0 21 21" id="preloader" xmlns="http://www.w3.org/2000/svg"><path fill-rule="evenodd" clip-rule="evenodd" d="M18.013 10.003a8 8 0 10-16 .02 8 8 0 0016-.02zm2-.003C20.006 4.477 15.523.006 10 .013 4.477.021.006 4.503.013 10.026c.008 5.523 4.49 9.994 10.013 9.987 5.523-.007 9.994-4.49 9.987-10.013z"/><defs><radialGradient id="bdpaint0_angular" cx="0" cy="0" r="1" gradientUnits="userSpaceOnUse" gradientTransform="rotate(-.076 7576.86 -7566.847) scale(10)"><stop stop-color="#BBB3A8"/><stop offset="1" stop-color="#BBB3A8" stop-opacity=".07"/></radialGradient></defs></symbol><symbol viewBox="0 0 9 9" id="romb" xmlns="http://www.w3.org/2000/svg"><path d="M.707 4.243L4.243.707l3.535 3.536-3.535 3.536z"/></symbol><symbol viewBox="0 0 9 9" id="romb-black" xmlns="http://www.w3.org/2000/svg"><path d="M0 4.159L4.159 0l4.158 4.159-4.159 4.158L0 4.158z"/></symbol><symbol viewBox="0 0 12 13" id="shevron" xmlns="http://www.w3.org/2000/svg"><path d="M10.708 6.655L6 1.858 1.29 6.656a.743.743 0 01-1.07 0 .788.788 0 010-1.095L5.465.218a.765.765 0 011.07 0l5.244 5.344a.788.788 0 010 1.095.746.746 0 01-1.071-.002z"/><path d="M5.465 5.638a.765.765 0 011.07 0l5.244 5.343a.788.788 0 010 1.095.743.743 0 01-1.07 0l-4.71-4.798-4.708 4.798a.743.743 0 01-1.07 0 .788.788 0 010-1.095l5.244-5.343z"/></symbol><symbol viewBox="0 0 45 45" id="success" xmlns="http://www.w3.org/2000/svg"><circle cx="22.5" cy="22.5" r="22.5" fill-opacity=".52"/><path d="M28.446 16L31 18.494 20.243 29 14 22.903l2.554-2.494 3.689 3.603L28.446 16z"/></symbol><symbol viewBox="0 0 12 16" id="user" xmlns="http://www.w3.org/2000/svg"><path d="M6 7.499c1.754 0 3.177-1.679 3.177-3.75C9.177 1.68 8.71 0 6 0S2.824 1.679 2.824 3.75c0 2.07 1.422 3.749 3.176 3.749zm5.992 5.573c-.059-3.607-.543-4.635-4.253-5.285 0 0-.522.646-1.74.646-1.216 0-1.738-.646-1.738-.646C.59 8.43.077 9.443.01 12.955c-.006.287-.009.302-.01.269l.001.379s.883 1.73 5.999 1.73 5.999-1.73 5.999-1.73v-.28c-.001.02-.003-.02-.007-.25z"/></symbol><symbol viewBox="0 0 33 33" id="vk" xmlns="http://www.w3.org/2000/svg"><path fill-rule="evenodd" clip-rule="evenodd" d="M16.5 33C25.613 33 33 25.613 33 16.5S25.613 0 16.5 0 0 7.387 0 16.5 7.387 33 16.5 33zm9.087-12.842c.02.03.04.07.064.117.022.047.045.13.068.248a.699.699 0 01-.005.319c-.026.093-.107.18-.244.258-.136.077-.329.117-.576.117l-2.499.037a1.138 1.138 0 01-.546-.047 2.428 2.428 0 01-.508-.206l-.195-.112a4.532 4.532 0 01-.684-.6 16.73 16.73 0 01-.668-.726 3.186 3.186 0 00-.596-.544c-.212-.147-.396-.195-.552-.145a.656.656 0 00-.078.032 1.202 1.202 0 00-.376.412c-.062.11-.117.273-.166.488a2.99 2.99 0 00-.063.726.91.91 0 01-.034.258.608.608 0 01-.073.173l-.04.047c-.116.119-.289.188-.517.206h-1.122a4.618 4.618 0 01-1.426-.154 5.59 5.59 0 01-1.284-.497c-.367-.203-.702-.41-1.005-.619a5.746 5.746 0 01-.688-.539l-.244-.224a6.183 6.183 0 01-.269-.282 20.98 20.98 0 01-.698-.852 23.36 23.36 0 01-1.035-1.416 28.38 28.38 0 01-1.195-1.977 30.399 30.399 0 01-1.274-2.55.72.72 0 01-.059-.252c0-.069.01-.119.03-.15l.038-.056c.098-.119.284-.178.557-.178l2.675-.02c.078.013.153.034.224.062a.673.673 0 01.157.08l.048.028a.62.62 0 01.235.3c.13.312.28.635.449.97.169.334.302.588.4.763l.156.272c.189.375.371.7.547.975.175.275.333.489.473.642.14.153.275.273.405.36.13.088.241.132.332.132a.759.759 0 00.264-.047.165.165 0 00.049-.047 1.513 1.513 0 00.249-.646c.029-.182.06-.435.092-.76a7 7 0 000-1.171 4.182 4.182 0 00-.087-.684 1.738 1.738 0 00-.137-.431l-.059-.113c-.162-.212-.439-.346-.83-.403-.084-.012-.068-.087.05-.225.11-.118.234-.212.37-.28.345-.163 1.123-.238 2.333-.226.534.007.974.047 1.319.122.13.031.239.074.327.127a.512.512 0 01.2.225c.045.097.08.197.102.3.023.103.034.245.034.426s-.003.353-.01.515a131.3 131.3 0 00-.024.661c-.01.278-.015.536-.015.773 0 .069-.003.2-.01.394a7.657 7.657 0 00-.004.45c.003.106.014.232.034.38.02.146.057.268.112.365a.633.633 0 00.22.23l.166.037c.058.013.143-.022.253-.103.111-.081.235-.189.372-.323.136-.135.305-.344.507-.628.202-.284.423-.62.664-1.008a15.1 15.1 0 001.045-2.108.636.636 0 01.097-.164.43.43 0 01.108-.099l.038-.028.05-.023.126-.029a.379.379 0 01.196-.004l2.811-.019c.254-.031.462-.023.625.023.163.047.263.099.303.155l.058.094c.15.4-.339 1.318-1.465 2.755-.156.2-.367.465-.634.796-.508.625-.8 1.034-.879 1.228-.11.256-.065.51.137.76.11.13.374.387.79.768h.01l.01.01.01.008.02.02c.917.818 1.539 1.508 1.864 2.07z"/></symbol><symbol viewBox="0 0 19 11" id="vk-simple" xmlns="http://www.w3.org/2000/svg"><path d="M18.65 9.275a1.229 1.229 0 00-.063-.117c-.325-.563-.947-1.253-1.864-2.072l-.02-.018-.01-.01-.01-.01h-.01c-.416-.38-.68-.636-.79-.768-.202-.25-.247-.503-.137-.759.078-.194.371-.603.879-1.228.267-.33.478-.596.634-.796 1.126-1.437 1.614-2.355 1.465-2.755l-.058-.094c-.04-.056-.14-.108-.303-.155C18.2.447 17.992.44 17.738.47l-2.811.02a.38.38 0 00-.196.004l-.127.029-.049.023-.038.028a.428.428 0 00-.108.099.637.637 0 00-.097.164 15.039 15.039 0 01-1.045 2.108c-.24.388-.462.723-.664 1.008a4.886 4.886 0 01-.507.628c-.137.134-.26.242-.371.323-.111.081-.196.116-.254.103a7.484 7.484 0 01-.166-.037.633.633 0 01-.22-.23.999.999 0 01-.112-.366 3.884 3.884 0 01-.034-.38 7.657 7.657 0 01.005-.45 17.1 17.1 0 00.01-.393c0-.237.004-.495.014-.773l.024-.66c.007-.163.01-.335.01-.516s-.011-.323-.034-.426a1.415 1.415 0 00-.102-.3.512.512 0 00-.2-.225 1.154 1.154 0 00-.328-.127C9.995.048 9.554.008 9.02.001 7.81-.01 7.032.064 6.687.226c-.136.069-.26.163-.37.281-.118.138-.134.213-.05.225.391.056.667.19.83.403l.059.113c.045.081.091.225.137.43.045.207.074.435.087.685.033.456.033.847 0 1.171-.032.325-.063.578-.092.76-.03.18-.074.328-.132.44a1.837 1.837 0 01-.117.206.165.165 0 01-.05.047.758.758 0 01-.263.047c-.09 0-.202-.044-.332-.131a2.309 2.309 0 01-.405-.361 4.831 4.831 0 01-.473-.642c-.176-.275-.358-.6-.547-.975l-.156-.272c-.098-.175-.231-.43-.4-.763a14.32 14.32 0 01-.45-.97.621.621 0 00-.234-.3L3.68.59a.677.677 0 00-.156-.08A1.07 1.07 0 003.3.452L.625.47C.352.47.166.529.068.648L.03.704a.293.293 0 00-.03.15c0 .069.02.153.059.253.39.881.815 1.73 1.274 2.55.458.818.857 1.477 1.195 1.976.339.5.684.972 1.035 1.416.352.443.584.727.698.852.114.126.204.22.269.282l.244.224c.156.15.385.33.688.54.303.209.638.415 1.006.618a5.59 5.59 0 001.283.497c.488.128.964.18 1.426.154h1.122c.228-.018.4-.087.518-.206l.039-.047a.61.61 0 00.073-.173.918.918 0 00.034-.258 2.99 2.99 0 01.063-.726 1.87 1.87 0 01.166-.487 1.204 1.204 0 01.377-.413.652.652 0 01.077-.032c.156-.05.34-.002.552.145.212.147.41.328.596.544.185.215.408.457.668.726.26.269.488.468.684.6l.195.112c.13.075.3.144.508.206.208.063.39.078.546.047l2.5-.037c.246 0 .439-.04.575-.117.137-.079.218-.165.244-.258a.699.699 0 00.005-.319 1.142 1.142 0 00-.068-.248z"/></symbol></svg>