<svg width="14" height="16" viewBox="0 0 14 16" fill="none" xmlns="http://www.w3.org/2000/svg">
<path fill-rule="evenodd" clip-rule="evenodd" d="M3 0H4V1H3V0ZM3 2V1H1.5C0.671573 1 0 1.67157 0 2.5V5H1V6H0V14.5C0 15.3284 0.671573 16 1.5 16H12.5C13.3284 16 14 15.3284 14 14.5V6H13V5H14V2.5C14 1.67157 13.3284 1 12.5 1H11V0H10V1H4V2H3ZM10 2V1H11V2H10ZM10 2V4H11V2H12.5C12.7761 2 13 2.22386 13 2.5V5H1V2.5C1 2.22386 1.22386 2 1.5 2H3V4H4V2H10ZM13 6H1V14.5C1 14.7761 1.22386 15 1.5 15H12.5C12.7761 15 13 14.7761 13 14.5V6Z" fill="#CABCAA"/>
</svg>
