<svg width="33" height="33" viewBox="0 0 33 33" fill="none" xmlns="http://www.w3.org/2000/svg">
<path fill-rule="evenodd" clip-rule="evenodd" d="M16.5 33C25.6127 33 33 25.6127 33 16.5C33 7.3873 25.6127 0 16.5 0C7.3873 0 0 7.3873 0 16.5C0 25.6127 7.3873 33 16.5 33ZM19.031 7L21.3652 7.00375C21.5676 7.00412 21.7316 7.16835 21.7316 7.37077V10.1186C21.7316 10.3212 21.5674 10.4857 21.3648 10.4857L19.7924 10.4862C18.7083 10.4862 18.51 10.9087 18.51 11.7409V13.4723H21.255C21.3524 13.4723 21.4461 13.511 21.5148 13.5799C21.5835 13.6489 21.6223 13.7421 21.6223 13.8395L21.6211 16.7988C21.6211 17.0016 21.4569 17.1658 21.2541 17.1658H18.51V24.633C18.51 24.8356 18.3458 25 18.143 25H15.081C14.8782 25 14.7139 24.8358 14.7139 24.633V17.1658H12.367C12.1644 17.1658 12 17.0016 12 16.7988V13.8395C12 13.6367 12.1642 13.4723 12.367 13.4723H14.7139V11.4298C14.7139 8.73871 16.4086 7 19.031 7Z" fill="#CABCAA"/>
</svg>
