<svg width="33" height="35" viewBox="0 0 33 35" fill="none" xmlns="http://www.w3.org/2000/svg">
<path fill-rule="evenodd" clip-rule="evenodd" d="M16.5 35C25.6127 35 33 27.6127 33 18.5C33 9.3873 25.6127 2 16.5 2C7.3873 2 0 9.3873 0 18.5C0 27.6127 7.3873 35 16.5 35ZM19.031 9L21.3652 9.00375C21.5676 9.00412 21.7316 9.16835 21.7316 9.37077V12.1186C21.7316 12.3212 21.5674 12.4857 21.3648 12.4857L19.7924 12.4862C18.7083 12.4862 18.51 12.9087 18.51 13.7409V15.4723H21.255C21.3524 15.4723 21.4461 15.511 21.5148 15.5799C21.5835 15.6489 21.6223 15.7421 21.6223 15.8395L21.6211 18.7988C21.6211 19.0016 21.4569 19.1658 21.2541 19.1658H18.51V26.633C18.51 26.8356 18.3458 27 18.143 27H15.081C14.8782 27 14.7139 26.8358 14.7139 26.633V19.1658H12.367C12.1644 19.1658 12 19.0016 12 18.7988V15.8395C12 15.6367 12.1642 15.4723 12.367 15.4723H14.7139V13.4298C14.7139 10.7387 16.4086 9 19.031 9Z" fill="#CABCAA"/>
</svg>
