<svg width="25" height="17" viewBox="0 0 25 17" fill="none" xmlns="http://www.w3.org/2000/svg">
<path d="M24.9998 0.00012207H0V16.6668H24.9998V0.00012207Z" fill="#F0F0F0"/>
<path d="M14.0624 0H10.9374V6.77073H0V9.8957H10.9374V16.6664H14.0624V9.8957H24.9998V6.77073H14.0624V0Z" fill="#D80027"/>
<path d="M19.2281 11.2317L25.0002 14.4385V11.2317H19.2281Z" fill="#0052B4"/>
<path d="M15.218 11.2317L25.0005 16.6664V15.1296L17.9843 11.2317H15.218Z" fill="#0052B4"/>
<path d="M22.3944 16.6664L15.2176 12.6789V16.6664H22.3944Z" fill="#0052B4"/>
<path d="M15.2174 11.2317L25 16.6664V15.1296L17.9838 11.2317H15.2174Z" fill="#F0F0F0"/>
<path d="M15.2174 11.2317L25 16.6664V15.1296L17.9838 11.2317H15.2174Z" fill="#D80027"/>
<path d="M4.41114 11.2316L0 13.6822V11.2316H4.41114Z" fill="#0052B4"/>
<path d="M9.78246 11.9227V16.6663H1.2446L9.78246 11.9227Z" fill="#0052B4"/>
<path d="M7.01619 11.2317L0 15.1296V16.6664L9.78252 11.2317H7.01619Z" fill="#D80027"/>
<path d="M5.77216 5.4347L0 2.22789V5.4347H5.77216Z" fill="#0052B4"/>
<path d="M9.78252 5.43471L0 0V1.5368L7.01619 5.43471H9.78252Z" fill="#0052B4"/>
<path d="M2.60567 0L9.78245 3.98746V0H2.60567Z" fill="#0052B4"/>
<path d="M9.78252 5.43471L0 0V1.5368L7.01619 5.43471H9.78252Z" fill="#F0F0F0"/>
<path d="M9.78252 5.43471L0 0V1.5368L7.01619 5.43471H9.78252Z" fill="#D80027"/>
<path d="M20.5891 5.43481L25.0003 2.98415V5.43481H20.5891Z" fill="#0052B4"/>
<path d="M15.2174 4.74365V0H23.7553L15.2174 4.74365Z" fill="#0052B4"/>
<path d="M17.9838 5.43471L25 1.5368V0L15.2174 5.43471H17.9838Z" fill="#D80027"/>
</svg>
