<svg width="33" height="33" viewBox="0 0 33 33" fill="none" xmlns="http://www.w3.org/2000/svg">
<path fill-rule="evenodd" clip-rule="evenodd" d="M16.5 33C25.6127 33 33 25.6127 33 16.5C33 7.3873 25.6127 0 16.5 0C7.3873 0 0 7.3873 0 16.5C0 25.6127 7.3873 33 16.5 33ZM13.692 8H20.058C22.6451 8 24.75 10.1048 24.75 12.692V19.058C24.75 21.6452 22.6452 23.75 20.058 23.75H13.692C11.1048 23.75 9 21.6452 9 19.058V12.692C9 10.1048 11.1048 8 13.692 8ZM20.058 22.1656C21.7742 22.1656 23.1656 20.7742 23.1656 19.058V12.692C23.1656 10.9757 21.7742 9.58445 20.058 9.58445H13.692C11.9758 9.58445 10.5844 10.9757 10.5844 12.692V19.058C10.5844 20.7742 11.9758 22.1656 13.692 22.1656H20.058ZM16.875 11.8015C14.6288 11.8015 12.8014 13.6289 12.8014 15.875C12.8014 18.1211 14.6288 19.9485 16.875 19.9485C19.1211 19.9485 20.9485 18.1211 20.9485 15.875C20.9485 13.6289 19.1211 11.8015 16.875 11.8015ZM16.875 18.3641C15.5003 18.3641 14.3859 17.2497 14.3859 15.875C14.3859 14.5003 15.5003 13.386 16.875 13.386C18.2496 13.386 19.364 14.5003 19.364 15.875C19.364 17.2497 18.2496 18.3641 16.875 18.3641ZM21.9325 11.8321C21.9325 12.3711 21.4955 12.8082 20.9564 12.8082C20.4173 12.8082 19.9803 12.3711 19.9803 11.8321C19.9803 11.293 20.4173 10.856 20.9564 10.856C21.4955 10.856 21.9325 11.293 21.9325 11.8321Z" fill="#CABCAA"/>
</svg>
