<svg width="16" height="16" viewBox="0 0 16 16" fill="none" xmlns="http://www.w3.org/2000/svg">
<path d="M11.058 0H4.69201C2.10483 0 0 2.10483 0 4.69201V11.058C0 13.6452 2.10483 15.75 4.69201 15.75H11.058C13.6452 15.75 15.75 13.6452 15.75 11.058V4.69201C15.75 2.10483 13.6451 0 11.058 0ZM14.1656 11.058C14.1656 12.7742 12.7742 14.1656 11.058 14.1656H4.69201C2.97577 14.1656 1.58445 12.7742 1.58445 11.058V4.69201C1.58445 2.97574 2.97577 1.58445 4.69201 1.58445H11.058C12.7742 1.58445 14.1656 2.97574 14.1656 4.69201V11.058Z" fill="#1E1E1E"/>
<path d="M7.87496 3.80151C5.62882 3.80151 3.80145 5.62888 3.80145 7.87499C3.80145 10.1211 5.62882 11.9485 7.87496 11.9485C10.1211 11.9485 11.9485 10.1211 11.9485 7.87499C11.9485 5.62885 10.1211 3.80151 7.87496 3.80151ZM7.87496 10.3641C6.50027 10.3641 5.38589 9.2497 5.38589 7.87502C5.38589 6.50033 6.5003 5.38596 7.87496 5.38596C9.24964 5.38596 10.364 6.50033 10.364 7.87502C10.364 9.24967 9.24961 10.3641 7.87496 10.3641Z" fill="#1E1E1E"/>
<path d="M11.9564 4.80816C12.4955 4.80816 12.9325 4.37115 12.9325 3.83206C12.9325 3.29298 12.4955 2.85596 11.9564 2.85596C11.4173 2.85596 10.9803 3.29298 10.9803 3.83206C10.9803 4.37115 11.4173 4.80816 11.9564 4.80816Z" fill="#1E1E1E"/>
</svg>
