<svg width="42" height="33" viewBox="0 0 42 33" fill="none" xmlns="http://www.w3.org/2000/svg">
<path d="M9.20705 31.8379L8.4577 21.5426C8.2961 19.4638 8.24248 18.0758 8.24248 17.3833C8.24248 15.463 8.50954 13.7027 9.04581 12.102C9.58065 10.5021 10.5978 8.74177 11.9903 6.92733C10.3304 6.92733 8.61751 7.3014 6.9043 8.10228C5.1911 8.90102 3.90691 9.80913 3.10322 10.8213C2.30167 11.8355 1.927 12.8495 1.927 13.9158C1.927 14.3956 2.08788 14.8752 2.35494 15.4096C2.72997 16.1025 2.88942 16.6355 2.88942 16.9557C2.88942 17.2753 2.83651 17.5432 2.62236 17.7566C2.40857 17.9697 2.14115 18.0227 1.87373 18.0227C1.39216 18.0227 1.01677 17.8093 0.642094 17.3298C0.214507 16.7427 0 15.9422 0 15.0351C0 13.3283 0.695364 11.6752 1.98063 10.0753C3.31773 8.47564 5.08492 7.3014 7.38766 6.55397C8.8313 6.07408 10.9728 5.75309 13.7564 5.54112C14.505 5.48803 15.3091 5.43424 16.0584 5.32807C14.1314 8.15465 12.8994 10.5017 12.3106 12.3678C11.7222 14.2873 11.4544 16.8485 11.4544 20.0492C11.4544 22.5031 11.5623 24.7433 11.8298 26.77L15.8979 22.4486L19.3769 18.8756C22.9635 15.1951 25.3713 12.3678 26.6026 10.2352C27.5132 8.68726 27.994 7.24761 27.994 5.96685C27.994 5.22048 27.8349 4.47447 27.5132 3.62051C27.2987 3.03375 27.1914 2.66038 27.1914 2.34046C27.1914 1.96674 27.2987 1.64611 27.6194 1.32654C27.8868 1.06041 28.2614 0.900094 28.6376 0.900094C29.172 0.900094 29.6536 1.21966 30.0301 1.75334C30.4037 2.34046 30.5646 3.19406 30.5646 4.36723C30.5646 5.54111 30.35 6.71428 29.8688 8.04777C29.3865 9.32746 28.3694 10.9812 26.8178 12.9549C25.2104 14.929 22.8015 17.5959 19.5907 20.8493C16.1653 24.3165 12.6857 27.9977 9.20705 31.8379Z" fill="white"/>
<path d="M25.6769 25.7337L23.7813 27.1516L24.4913 24.884L22.5969 23.5145H24.9665L25.6769 21.2484L26.388 23.5145H28.7576L26.862 24.884L27.5724 27.1516L25.6769 25.7337Z" fill="white"/>
<path d="M31.5804 20.2303L29.6384 21.6468L30.3966 19.3806L28.4528 18.0111H30.8224L31.5804 15.7435L32.2908 18.0111H34.6604L32.7659 19.3806L33.4777 21.6468L31.5804 20.2303Z" fill="white"/>
<path d="M36.2494 13.2713L34.3063 14.6422L35.0657 12.422L33.1219 11.004H35.5394L36.2494 8.78488L36.9612 11.004H39.3319L37.4349 12.422L38.145 14.6422L36.2494 13.2713Z" fill="white"/>
<path d="M38.7291 4.48747L36.8354 5.90397L37.5454 3.63708L35.6499 2.26725H38.0191L38.7291 0L39.4409 2.26725H41.8581L39.9143 3.63708L40.6715 5.90397L38.7291 4.48747Z" fill="white"/>
<path d="M18.8756 31.5717L16.9332 32.9885L17.6918 30.7223L15.7477 29.3515H18.1166L18.8756 27.0838L19.5863 29.3515H21.9559L20.0614 30.7223L20.7729 32.9885L18.8756 31.5717Z" fill="white"/>
</svg>
