<svg width="21" height="21" viewBox="0 0 21 21" fill="none" xmlns="http://www.w3.org/2000/svg">
<path d="M3.91144 9.88477C4.35432 11.5152 6.80054 11.5212 7.2447 9.88477H3.91144Z" fill="#1E1E1E"/>
<path d="M9.26953 2.50195H9.88477V0.615234C9.88477 0.275379 9.6093 0 9.26953 0H1.88672C0.867357 0 0 0.867357 0 1.88672V19.1133C0 20.1326 0.867357 21 1.88672 21H9.26953C9.6093 21 9.88477 20.7245 9.88477 20.3848V18.498H9.26953C8.92947 18.498 8.6543 18.2229 8.6543 17.8828C8.6543 17.5428 8.92947 17.2676 9.26953 17.2676H9.88477V3.73242H9.26953C8.92947 3.73242 8.6543 3.45725 8.6543 3.11719C8.6543 2.77713 8.92947 2.50195 9.26953 2.50195ZM6.19336 12.2768V14.8066H6.80859C7.14865 14.8066 7.42383 15.0818 7.42383 15.4219C7.42383 15.7619 7.14865 16.0371 6.80859 16.0371H4.34766C4.0076 16.0371 3.73242 15.7619 3.73242 15.4219C3.73242 15.0818 4.0076 14.8066 4.34766 14.8066H4.96289V12.2768C3.46102 11.972 2.57705 10.7284 2.6168 9.27593C2.6168 9.27367 2.61553 9.27179 2.61553 9.26953C2.61553 9.26313 2.61889 9.25788 2.61909 9.25157C2.62992 8.94251 2.68144 8.63002 2.78312 8.32445L3.76425 5.38346C3.84776 5.13233 4.0827 4.96289 4.34766 4.96289H6.80859C7.07355 4.96289 7.30845 5.13233 7.392 5.38346L8.37252 8.32445C8.47412 8.62928 8.52567 8.94104 8.53671 9.24931C8.53691 9.25645 8.54077 9.26231 8.54077 9.26953C8.54077 9.27207 8.53933 9.27413 8.53933 9.27667C8.57907 10.7237 7.69962 11.9711 6.19336 12.2768Z" fill="#1E1E1E"/>
<path d="M6.36517 6.19336H4.79107L3.97035 8.6543H7.18532L6.36517 6.19336Z" fill="#1E1E1E"/>
<path d="M16.6934 4.96289H14.1914C13.852 4.96289 13.5762 5.23868 13.5762 5.57812C13.5762 5.91757 13.852 6.19336 14.1914 6.19336H16.6934C17.0328 6.19336 17.3086 5.91757 17.3086 5.57812C17.3086 5.23868 17.0328 4.96289 16.6934 4.96289Z" fill="#1E1E1E"/>
<path d="M19.1543 0H11.7305C11.3907 0 11.1152 0.275379 11.1152 0.615234V2.50195H11.7305C12.0705 2.50195 12.3457 2.77713 12.3457 3.11719C12.3457 3.45725 12.0705 3.73242 11.7305 3.73242H11.1152V17.2676H11.7305C12.0705 17.2676 12.3457 17.5428 12.3457 17.8828C12.3457 18.2229 12.0705 18.498 11.7305 18.498H11.1152V20.3848C11.1152 20.7245 11.3907 21 11.7305 21H19.1543C20.1737 21 21 20.1326 21 19.1133V1.88672C21 0.867357 20.1737 0 19.1543 0ZM17.9238 17.2676H12.9609C12.6209 17.2676 12.3457 16.9924 12.3457 16.6523C12.3457 16.3123 12.6209 16.0371 12.9609 16.0371H17.9238C18.2639 16.0371 18.5391 16.3123 18.5391 16.6523C18.5391 16.9924 18.2639 17.2676 17.9238 17.2676ZM17.9238 14.8066H12.9609C12.6209 14.8066 12.3457 14.5315 12.3457 14.1914C12.3457 13.8513 12.6209 13.5762 12.9609 13.5762H17.9238C18.2639 13.5762 18.5391 13.8513 18.5391 14.1914C18.5391 14.5315 18.2639 14.8066 17.9238 14.8066ZM17.9238 12.3457H12.9609C12.6209 12.3457 12.3457 12.0705 12.3457 11.7305C12.3457 11.3904 12.6209 11.1152 12.9609 11.1152H17.9238C18.2639 11.1152 18.5391 11.3904 18.5391 11.7305C18.5391 12.0705 18.2639 12.3457 17.9238 12.3457ZM17.9238 9.88477H12.9609C12.6209 9.88477 12.3457 9.60959 12.3457 9.26953C12.3457 8.92947 12.6209 8.6543 12.9609 8.6543H17.9238C18.2639 8.6543 18.5391 8.92947 18.5391 9.26953C18.5391 9.60959 18.2639 9.88477 17.9238 9.88477ZM16.6934 7.42383H14.1914C13.1736 7.42383 12.3457 6.59589 12.3457 5.57812C12.3457 4.56036 13.1736 3.73242 14.1914 3.73242H16.6934C17.7111 3.73242 18.5391 4.56036 18.5391 5.57812C18.5391 6.59589 17.7111 7.42383 16.6934 7.42383Z" fill="#1E1E1E"/>
</svg>
