<svg width="26" height="18" viewBox="0 0 26 18" fill="none" xmlns="http://www.w3.org/2000/svg">
<path d="M13.0002 0C8.22145 0 4.3335 4.03749 4.3335 9C4.3335 13.9625 8.22145 18 13.0002 18C17.7789 18 21.6668 13.9625 21.6668 9C21.6668 4.03749 17.7789 0 13.0002 0ZM7.58349 9C7.58349 9.31092 7.34121 9.56252 7.04181 9.56252C6.7424 9.56252 6.50012 9.31092 6.50012 9C6.50012 5.27786 9.41582 2.25001 13.0001 2.25001C13.2995 2.25001 13.5418 2.50161 13.5418 2.81253C13.5418 3.12345 13.2995 3.37505 13.0001 3.37505C10.0136 3.37499 7.58349 5.89859 7.58349 9ZM19.5001 9C19.5001 12.7221 16.5844 15.75 13.0002 15.75C12.7008 15.75 12.4585 15.4984 12.4585 15.1875C12.4585 14.8765 12.7008 14.625 13.0002 14.625C15.9868 14.625 18.4168 12.1014 18.4168 8.99995C18.4168 8.68903 18.6591 8.43743 18.9585 8.43743C19.2579 8.43748 19.5001 8.68908 19.5001 9Z" fill="#1E1E1E"/>
<path d="M25.4591 0C23.9653 0 22.7508 1.26177 22.7508 2.81248V9C22.7508 9.93055 23.4797 10.6875 24.3758 10.6875H24.9175V17.4375C24.9175 17.7484 25.1598 18 25.4592 18C25.7586 18 26.0008 17.7484 26.0008 17.4375V0.562517C26.0008 0.251595 25.7585 0 25.4591 0Z" fill="#1E1E1E"/>
<path d="M4.33331 0.562517C4.33331 0.251595 4.09103 0 3.79163 0C3.49227 0 3.24999 0.251595 3.24999 0.562517V5.62501C3.24999 6.03602 3.02615 6.38079 2.70831 6.57718V0.562517C2.70831 0.251595 2.46603 0 2.16663 0C1.86727 0 1.625 0.251595 1.625 0.562517V6.57718C1.30716 6.38079 1.08331 6.03602 1.08331 5.62501V0.562517C1.08331 0.251595 0.841038 0 0.541632 0C0.242277 0 0 0.251595 0 0.562517V5.62501C0 6.67052 0.693366 7.54358 1.625 7.79507V17.4375C1.625 17.7484 1.86727 18 2.16668 18C2.46609 18 2.70836 17.7484 2.70836 17.4375V7.79507C3.63999 7.54353 4.33336 6.67046 4.33336 5.62501V0.562517H4.33331Z" fill="#1E1E1E"/>
</svg>
