<svg width="24" height="24" viewBox="0 0 24 24" fill="none" xmlns="http://www.w3.org/2000/svg">
<path d="M-3.43323e-05 16.4063L0.140591 16.5938C0.933251 17.6508 2.21248 18.2813 3.56248 18.2813C4.60358 18.2813 5.60812 17.8894 6.375 17.206C7.14187 17.8894 8.14641 18.2813 9.18751 18.2813C10.2186 18.2813 11.2263 17.8959 12 17.206C12.7728 17.8949 13.7801 18.2813 14.8125 18.2813C15.8536 18.2813 16.8582 17.8894 17.625 17.206C18.3919 17.8894 19.3965 18.2813 20.4376 18.2813C21.788 18.2813 23.0668 17.6508 23.8595 16.5938L24.0001 16.4063V12.6563H-3.43323e-05V16.4063Z" fill="#1E1E1E"/>
<path d="M21.8907 8.43752H2.10935C0.946376 8.43752 -3.43323e-05 9.38393 -3.43323e-05 10.5469V11.25H24.0001V10.5469C24.0001 9.38393 23.0537 8.43752 21.8907 8.43752Z" fill="#1E1E1E"/>
<path d="M4.2656 4.80143V7.03128H5.67186V4.80143C6.4903 4.51127 7.07812 3.72939 7.07812 2.81251V0H2.85935V2.81251C2.85935 3.72939 3.44716 4.51127 4.2656 4.80143Z" fill="#1E1E1E"/>
<path d="M18.3282 4.80143V7.03128H19.7344V4.80143C20.5529 4.51127 21.1407 3.72939 21.1407 2.81251V0H16.9219V2.81251C16.9219 3.72939 17.5097 4.51127 18.3282 4.80143Z" fill="#1E1E1E"/>
<path d="M12.7031 2.86275V1.40639H11.2969V2.86275C9.14438 3.17199 7.43751 4.87919 7.12874 7.03127H16.8713C16.5625 4.87919 14.8557 3.17204 12.7031 2.86275Z" fill="#1E1E1E"/>
<path d="M14.1094 19.6431C13.3754 19.5498 12.6554 19.3107 12 18.9324C11.3321 19.3182 10.6107 19.5517 9.89065 19.6431V22.5939H7.07814V24.0001H16.9219V22.5939H14.1094V19.6431Z" fill="#1E1E1E"/>
</svg>
