<svg width="13" height="72" viewBox="0 0 13 72" fill="none" xmlns="http://www.w3.org/2000/svg">
<rect x="5" y="12" width="2" height="12" rx="1" fill="white"/>
<circle cx="6" cy="9" r="1" fill="white"/>
<circle cx="6" cy="5" r="1" fill="white"/>
<circle cx="6" cy="1" r="1" fill="white"/>
<circle cx="6" cy="63" r="1" transform="rotate(-180 6 63)" fill="white"/>
<circle cx="6" cy="67" r="1" transform="rotate(-180 6 67)" fill="white"/>
<circle cx="6" cy="71" r="1" transform="rotate(-180 6 71)" fill="white"/>
<path d="M6.33776 34C2.84305 34 0 36.8877 0 40.4371V45.5631C0 49.1124 2.84305 52 6.33776 52C9.83225 52 12.6755 49.1212 12.6755 45.5828V40.4371C12.6755 36.8877 9.83225 34 6.33776 34ZM11.4834 45.5828C11.4834 48.464 9.17522 50.808 6.33776 50.808C3.50047 50.808 1.19208 48.4551 1.19208 45.5629V40.4371C1.19208 37.5449 3.50047 35.192 6.33776 35.192C9.17525 35.192 11.4834 37.5449 11.4834 40.4371V45.5828Z" fill="white"/>
<path d="M6.33725 38.9271C6.00805 38.9271 5.74121 39.194 5.74121 39.5232V41.6093C5.74121 41.9385 6.00805 42.2053 6.33725 42.2053C6.66645 42.2053 6.93329 41.9385 6.93329 41.6093V39.5232C6.93329 39.194 6.66645 38.9271 6.33725 38.9271Z" fill="white"/>
</svg>
