<svg width="12" height="72" viewBox="0 0 12 72" fill="none" xmlns="http://www.w3.org/2000/svg">
<rect x="5" y="12" width="2" height="12" rx="1" fill="white"/>
<circle cx="6" cy="9" r="1" fill="white"/>
<circle cx="6" cy="5" r="1" fill="white"/>
<circle cx="6" cy="1" r="1" fill="white"/>
<circle cx="6" cy="63" r="1" transform="rotate(-180 6 63)" fill="white"/>
<circle cx="6" cy="67" r="1" transform="rotate(-180 6 67)" fill="white"/>
<circle cx="6" cy="71" r="1" transform="rotate(-180 6 71)" fill="white"/>
<path d="M6 34C2.69154 34 0 36.8877 0 40.4371V45.5631C0 49.1124 2.69154 52 6 52C9.30826 52 12 49.1212 12 45.5828V40.4371C12 36.8877 9.30826 34 6 34ZM10.8715 45.5828C10.8715 48.464 8.68624 50.808 6 50.808C3.31392 50.808 1.12855 48.4551 1.12855 45.5629V40.4371C1.12855 37.5449 3.31392 35.192 6 35.192C8.68628 35.192 10.8715 37.5449 10.8715 40.4371V45.5828Z" fill="white"/>
<path d="M5.99952 38.9271C5.68786 38.9271 5.43524 39.194 5.43524 39.5232V41.6093C5.43524 41.9385 5.68786 42.2053 5.99952 42.2053C6.31117 42.2053 6.56379 41.9385 6.56379 41.6093V39.5232C6.56379 39.194 6.31117 38.9271 5.99952 38.9271Z" fill="white"/>
</svg>
