<svg width="12" height="19" viewBox="0 0 12 19" fill="none" xmlns="http://www.w3.org/2000/svg">
<path d="M5.76595 9.99384C8.52565 9.99384 10.7629 7.75665 10.7629 4.9969C10.7629 2.23716 8.52569 0 5.76595 0C3.0062 0 0.769043 2.23719 0.769043 4.99694C0.77243 7.75524 3.00764 9.99045 5.76595 9.99384ZM5.76595 2.30627C7.25194 2.30627 8.45661 3.51091 8.45661 4.99694C8.45661 6.48297 7.25198 7.6876 5.76595 7.6876C4.27991 7.6876 3.07528 6.48297 3.07528 4.99694C3.07528 3.51091 4.27995 2.30627 5.76595 2.30627Z" fill="#1E1E1E"/>
<path d="M10.6605 12.3617C11.2035 12.004 11.5307 11.3976 11.5315 10.7473C11.539 10.2076 11.2345 9.71208 10.7497 9.475C10.2515 9.22618 9.65518 9.28221 9.21212 9.61954C7.15871 11.1166 4.37363 11.1166 2.32022 9.61954C1.87648 9.28398 1.28121 9.22802 0.782693 9.475C0.298051 9.71205 -0.00662912 10.2071 0.000109528 10.7465C0.00126266 11.3967 0.328357 12.0029 0.871124 12.3609C1.56747 12.824 2.32581 13.1863 3.1236 13.4372C3.25891 13.4792 3.39855 13.5182 3.54258 13.554L1.21941 15.8257C0.609975 16.417 0.595236 17.3904 1.18654 17.9999C1.77785 18.6093 2.75121 18.624 3.36067 18.0327C3.37336 18.0204 3.38583 18.0079 3.39808 17.9951L5.76587 15.5443L8.13826 17.9997C8.72907 18.6096 9.70246 18.6251 10.3124 18.0343C10.9223 17.4435 10.9378 16.4701 10.347 15.8602C10.3346 15.8475 10.322 15.8349 10.3092 15.8226L7.98987 13.5533C8.13387 13.5164 8.27405 13.4771 8.41037 13.4356C9.20729 13.1858 9.96491 12.8242 10.6605 12.3617Z" fill="#1E1E1E"/>
</svg>
