<svg width="33" height="33" viewBox="0 0 33 33" fill="none" xmlns="http://www.w3.org/2000/svg">
<path fill-rule="evenodd" clip-rule="evenodd" d="M33 16.5C33 25.6127 25.6127 33 16.5 33C7.3873 33 0 25.6127 0 16.5C0 7.3873 7.3873 0 16.5 0C25.6127 0 33 7.3873 33 16.5ZM16.7658 16.9938C19.5255 16.9938 21.7627 14.7566 21.7627 11.9969C21.7627 9.23714 19.5256 6.99998 16.7658 6.99998C14.0061 6.99998 11.7689 9.23718 11.7689 11.9969C11.7723 14.7552 14.0075 16.9904 16.7658 16.9938ZM16.7658 9.30626C18.2518 9.30626 19.4565 10.5109 19.4565 11.9969C19.4565 13.483 18.2518 14.6876 16.7658 14.6876C15.2798 14.6876 14.0751 13.483 14.0751 11.9969C14.0751 10.5109 15.2798 9.30626 16.7658 9.30626ZM22.5315 17.7473C22.5308 18.3975 22.2036 19.004 21.6605 19.3616C20.965 19.8241 20.2074 20.1857 19.4104 20.4356C19.2741 20.4771 19.1339 20.5163 18.9899 20.5532L21.3093 22.8226C21.3221 22.8349 21.3347 22.8474 21.347 22.8602C21.9378 23.4701 21.9223 24.4435 21.3124 25.0343C20.7025 25.6251 19.7291 25.6096 19.1383 24.9997L16.7659 22.5443L14.3981 24.9951C14.3859 25.0078 14.3734 25.0203 14.3607 25.0327C13.7513 25.624 12.7779 25.6092 12.1866 24.9998C11.5953 24.3903 11.61 23.417 12.2195 22.8257L14.5427 20.554C14.3986 20.5181 14.259 20.4791 14.1237 20.4371C13.3259 20.1863 12.5675 19.8239 11.8712 19.3609C11.3284 19.0029 11.0013 18.3966 11.0002 17.7465C10.9934 17.207 11.2981 16.712 11.7828 16.475C12.2813 16.228 12.8765 16.2839 13.3203 16.6195C15.3737 18.1165 18.1588 18.1165 20.2122 16.6195C20.6553 16.2822 21.2516 16.2261 21.7497 16.475C22.2346 16.712 22.5391 17.2076 22.5315 17.7473Z" fill="#CABCAA"/>
</svg>
