<svg width="14" height="16" viewBox="0 0 14 16" fill="none" xmlns="http://www.w3.org/2000/svg">
<path d="M2.928 0H8.376C11.896 0 13.656 1.384 13.656 4.152C13.656 5.608 13.144 6.808 12.12 7.752C11.112 8.696 9.8 9.232 8.184 9.36H7.392L5.904 8.928L5.208 12.576C5.048 13.456 5.048 14 5.208 14.208C5.384 14.416 5.944 14.568 6.888 14.664L6.744 15.408H0.0240021L0.216003 14.664C0.968003 14.584 1.448 14.44 1.656 14.232C1.88 14.008 2.08 13.456 2.256 12.576L4.176 2.88C4.336 1.952 4.344 1.392 4.2 1.2C4.056 0.992 3.568 0.848 2.736 0.768L2.928 0ZM7.176 2.328L6.096 8.04C6.448 8.216 6.848 8.304 7.296 8.304C8.224 8.304 8.992 7.864 9.6 6.984C10.224 6.088 10.536 5.024 10.536 3.792C10.536 2.864 10.328 2.152 9.912 1.656C9.512 1.144 8.992 0.888 8.352 0.888C8.032 0.888 7.784 0.96 7.608 1.104C7.448 1.2 7.304 1.608 7.176 2.328Z" fill="#1E1E1E"/>
<path d="M0 11.12H12.272V12.32H0V11.12Z" fill="#1E1E1E"/>
</svg>
