<svg width="12" height="13" viewBox="0 0 12 13" fill="none" xmlns="http://www.w3.org/2000/svg">
<path d="M10.708 6.65512L5.99957 1.8577L1.29115 6.65589C0.995984 6.95869 0.516549 6.95869 0.221378 6.65589C-0.0737926 6.35309 -0.0737925 5.86291 0.221378 5.56088L5.46471 0.218301C5.74861 -0.0720755 6.24984 -0.0736203 6.53523 0.218301L11.7786 5.56166C12.0737 5.86368 12.0737 6.35464 11.7786 6.65667C11.4826 6.95786 11.0031 6.95786 10.708 6.65512Z" fill="white"/>
<path d="M5.46471 5.6381C5.74861 5.34772 6.24984 5.34618 6.53523 5.6381L11.7786 10.9807C12.0737 11.2835 12.0737 11.7737 11.7786 12.0758C11.4834 12.3786 11.004 12.3786 10.7088 12.0758L5.99963 7.27829L1.29115 12.0758C0.995983 12.3786 0.516549 12.3786 0.221378 12.0758C-0.0737926 11.7729 -0.0737925 11.2828 0.221378 10.9807L5.46471 5.6381Z" fill="white"/>
</svg>
