<svg width="20" height="16" viewBox="0 0 20 16" fill="none" xmlns="http://www.w3.org/2000/svg">
<path d="M6.00029 7.49897C7.75443 7.49897 9.17657 5.82028 9.17657 3.74951C9.17657 1.67868 8.70966 0 6.00029 0C3.29091 0 2.82391 1.67868 2.82391 3.74951C2.82391 5.82028 4.24606 7.49897 6.00029 7.49897Z" fill="#CABCAA"/>
<path d="M11.9923 13.0725C11.9334 9.46514 11.4487 8.43725 7.73912 7.78659C7.73912 7.78659 7.21695 8.43326 5.99986 8.43326C4.78277 8.43326 4.26051 7.78659 4.26051 7.78659C0.591437 8.43015 0.0771946 9.4428 0.00957863 12.9553C0.00403412 13.2421 0.00146472 13.2572 0.000473022 13.2239C0.000698409 13.2863 0.000968773 13.4017 0.000968773 13.6029C0.000968773 13.6029 0.884124 15.3332 5.99986 15.3332C11.1155 15.3332 11.9988 13.6029 11.9988 13.6029C11.9988 13.4736 11.9988 13.3837 11.999 13.3226C11.998 13.3431 11.996 13.3032 11.9923 13.0725Z" fill="#CABCAA"/>
</svg>
