<svg width="12" height="16" viewBox="0 0 12 16" fill="none" xmlns="http://www.w3.org/2000/svg">
<path d="M5.99934 7.49897C7.75348 7.49897 9.17563 5.82028 9.17563 3.74951C9.17563 1.67868 8.70872 0 5.99934 0C3.28997 0 2.82297 1.67868 2.82297 3.74951C2.82297 5.82028 4.24511 7.49897 5.99934 7.49897Z" fill="#CABCAA"/>
<path d="M11.9913 13.0725C11.9325 9.46514 11.4477 8.43725 7.73818 7.78659C7.73818 7.78659 7.216 8.43326 5.99891 8.43326C4.78183 8.43326 4.25956 7.78659 4.25956 7.78659C0.590491 8.43015 0.0762486 9.4428 0.00863258 12.9553C0.00308807 13.2421 0.000518679 13.2572 -0.000473022 13.2239C-0.000247636 13.2863 2.27278e-05 13.4017 2.27278e-05 13.6029C2.27278e-05 13.6029 0.883178 15.3332 5.99891 15.3332C11.1146 15.3332 11.9978 13.6029 11.9978 13.6029C11.9978 13.4736 11.9979 13.3837 11.998 13.3226C11.997 13.3431 11.9951 13.3032 11.9913 13.0725Z" fill="#CABCAA"/>
</svg>
