<svg width="19" height="11" viewBox="0 0 19 11" fill="none" xmlns="http://www.w3.org/2000/svg">
<path d="M18.6506 9.27477C18.6279 9.22779 18.6067 9.18883 18.5871 9.15761C18.2618 8.59515 17.6401 7.90477 16.7225 7.08627L16.7031 7.06753L16.6934 7.05834L16.6835 7.04892H16.6737C16.2572 6.66778 15.9935 6.41152 15.8831 6.28031C15.681 6.03038 15.6357 5.7774 15.7461 5.52107C15.8242 5.3274 16.1173 4.91839 16.6248 4.2935C16.8917 3.96233 17.1031 3.6969 17.2593 3.49693C18.3853 2.05984 18.8734 1.14152 18.7237 0.741609L18.6655 0.648155C18.6264 0.591893 18.5256 0.540423 18.363 0.493483C18.2001 0.446641 17.9919 0.438894 17.7381 0.470111L14.9266 0.488756C14.881 0.473262 14.816 0.474707 14.7313 0.493483C14.6466 0.512259 14.6043 0.52168 14.6043 0.52168L14.5554 0.54515L14.5165 0.573346C14.484 0.591991 14.4482 0.624784 14.4091 0.671658C14.3702 0.718369 14.3377 0.773187 14.3117 0.835653C14.0056 1.59165 13.6576 2.29454 13.267 2.94428C13.0262 3.33172 12.805 3.66749 12.6031 3.95179C12.4014 4.23599 12.2321 4.44538 12.0956 4.5796C11.9588 4.71396 11.8354 4.82159 11.7245 4.9029C11.6138 4.98424 11.5293 5.01861 11.4708 5.00604C11.4122 4.99346 11.357 4.98099 11.3047 4.96852C11.2136 4.91226 11.1404 4.83574 11.0852 4.73891C11.0297 4.64207 10.9924 4.52019 10.9728 4.37336C10.9534 4.22644 10.9419 4.10006 10.9386 3.99381C10.9356 3.88768 10.937 3.73757 10.9436 3.5439C10.9504 3.35013 10.9534 3.21903 10.9534 3.15029C10.9534 2.91284 10.9582 2.65512 10.9679 2.37709C10.9778 2.09906 10.9857 1.87877 10.9924 1.71649C10.999 1.55403 11.0021 1.38216 11.0021 1.20097C11.0021 1.01977 10.9906 0.877669 10.9679 0.774532C10.9455 0.671527 10.9111 0.571541 10.8657 0.474608C10.82 0.377774 10.7532 0.302866 10.6655 0.24969C10.5777 0.196578 10.4685 0.15443 10.3385 0.123115C9.99355 0.0481751 9.55427 0.00763594 9.02049 0.00133349C7.81002 -0.0111401 7.03223 0.0638983 6.68729 0.226351C6.55063 0.294988 6.42695 0.38877 6.31637 0.5074C6.19919 0.644905 6.18285 0.719944 6.26744 0.732287C6.65799 0.788451 6.93448 0.922804 7.0972 1.13522L7.15584 1.24777C7.20146 1.32898 7.247 1.47276 7.29258 1.6789C7.33809 1.88504 7.36746 2.11308 7.38039 2.36288C7.41287 2.81905 7.41287 3.20954 7.38039 3.53438C7.3478 3.85935 7.31703 4.11234 7.28766 4.29353C7.25828 4.47473 7.21438 4.62156 7.15584 4.73398C7.0972 4.84644 7.05819 4.91518 7.03863 4.94012C7.0191 4.96507 7.00283 4.98079 6.9899 4.98697C6.90531 5.01808 6.81733 5.03394 6.72627 5.03394C6.63508 5.03394 6.5245 4.99015 6.39436 4.90264C6.26426 4.81513 6.12923 4.69492 5.98928 4.54182C5.84933 4.38869 5.69149 4.17471 5.51571 3.89983C5.34006 3.62495 5.15781 3.30008 4.96906 2.92521L4.8129 2.65335C4.71528 2.47846 4.58193 2.2238 4.41271 1.88961C4.24338 1.55528 4.09372 1.23189 3.96362 0.919489C3.91161 0.788286 3.83348 0.688399 3.72936 0.619663L3.6805 0.591466C3.64802 0.566519 3.59587 0.540029 3.52434 0.511799C3.45271 0.483602 3.37796 0.463382 3.29979 0.450941L0.624911 0.469586C0.351572 0.469586 0.16611 0.529032 0.0684544 0.647761L0.0293718 0.703925C0.00984758 0.735208 0 0.785168 0 0.853937C0 0.922673 0.0195242 1.00703 0.0586068 1.10692C0.449091 1.98795 0.873734 2.83763 1.33254 3.6561C1.79134 4.47456 2.19003 5.13386 2.52837 5.63339C2.86677 6.13329 3.21171 6.60509 3.56318 7.04856C3.91465 7.49219 4.1473 7.77649 4.26113 7.90139C4.3751 8.02652 4.46461 8.12007 4.52968 8.18254L4.77379 8.40742C4.92998 8.5574 5.15935 8.73702 5.46199 8.94628C5.7647 9.15568 6.09982 9.36182 6.46754 9.56504C6.83532 9.76793 7.26317 9.9335 7.75135 10.0616C8.23945 10.1897 8.71453 10.2412 9.17665 10.2164H10.2993C10.527 10.1975 10.6995 10.1287 10.8168 10.0101L10.8556 9.96315C10.8817 9.92586 10.9062 9.86792 10.9288 9.78996C10.9516 9.71187 10.963 9.62583 10.963 9.53225C10.9563 9.26364 10.9776 9.02155 11.0263 8.80602C11.0749 8.59056 11.1304 8.4281 11.1924 8.3187C11.2544 8.20939 11.3244 8.11715 11.4022 8.04237C11.4803 7.96743 11.5359 7.92204 11.5685 7.90641C11.6009 7.89069 11.6268 7.88002 11.6463 7.87362C11.8025 7.82366 11.9863 7.87204 12.198 8.019C12.4096 8.16583 12.608 8.34712 12.7936 8.56259C12.9791 8.77825 13.202 9.02021 13.4623 9.28882C13.7227 9.55752 13.9504 9.75727 14.1456 9.88866L14.3408 10.0011C14.4711 10.0762 14.6403 10.1449 14.8486 10.2074C15.0566 10.2698 15.2388 10.2854 15.3952 10.2542L17.8943 10.2168C18.1414 10.2168 18.3338 10.1775 18.4702 10.0995C18.6069 10.0214 18.6881 9.93541 18.7143 9.84182C18.7404 9.74814 18.7418 9.64185 18.7193 9.52302C18.6961 9.40449 18.6733 9.32161 18.6506 9.27477Z" fill="#1E1E1E"/>
</svg>
