<svg width="33" height="33" viewBox="0 0 33 33" fill="none" xmlns="http://www.w3.org/2000/svg">
<path fill-rule="evenodd" clip-rule="evenodd" d="M16.5 33C25.6127 33 33 25.6127 33 16.5C33 7.3873 25.6127 0 16.5 0C7.3873 0 0 7.3873 0 16.5C0 25.6127 7.3873 33 16.5 33ZM25.5871 20.1576C25.6067 20.1888 25.6279 20.2278 25.6506 20.2748C25.6733 20.3216 25.6961 20.4045 25.7193 20.523C25.7418 20.6419 25.7404 20.7481 25.7143 20.8418C25.6881 20.9354 25.6069 21.0214 25.4702 21.0995C25.3338 21.1775 25.1414 21.2168 24.8943 21.2168L22.3952 21.2542C22.2388 21.2854 22.0566 21.2698 21.8486 21.2074C21.6403 21.1449 21.4711 21.0762 21.3408 21.0011L21.1456 20.8887C20.9504 20.7573 20.7227 20.5575 20.4623 20.2888C20.202 20.0202 19.9791 19.7783 19.7936 19.5626C19.608 19.3471 19.4096 19.1658 19.198 19.019C18.9863 18.872 18.8025 18.8237 18.6463 18.8736C18.6268 18.88 18.6009 18.8907 18.5685 18.9064C18.5359 18.922 18.4803 18.9674 18.4022 19.0424C18.3244 19.1171 18.2544 19.2094 18.1924 19.3187C18.1304 19.4281 18.0749 19.5906 18.0263 19.806C17.9776 20.0216 17.9563 20.2636 17.963 20.5322C17.963 20.6258 17.9516 20.7119 17.9288 20.79C17.9062 20.8679 17.8817 20.9259 17.8556 20.9631L17.8168 21.0101C17.6995 21.1287 17.527 21.1975 17.2993 21.2164H16.1766C15.7145 21.2412 15.2395 21.1897 14.7513 21.0616C14.2632 20.9335 13.8353 20.7679 13.4675 20.565C13.0998 20.3618 12.7647 20.1557 12.462 19.9463C12.1593 19.737 11.93 19.5574 11.7738 19.4074L11.5297 19.1825C11.4646 19.1201 11.3751 19.0265 11.2611 18.9014C11.1473 18.7765 10.9147 18.4922 10.5632 18.0486C10.2117 17.6051 9.86677 17.1333 9.52837 16.6334C9.19003 16.1339 8.79134 15.4746 8.33253 14.6561C7.87373 13.8376 7.44909 12.988 7.05861 12.1069C7.01952 12.007 7 11.9227 7 11.8539C7 11.7852 7.00985 11.7352 7.02937 11.7039L7.06845 11.6478C7.16611 11.529 7.35157 11.4696 7.62491 11.4696L10.2998 11.4509C10.378 11.4634 10.4527 11.4836 10.5243 11.5118C10.5959 11.54 10.648 11.5665 10.6805 11.5915L10.7294 11.6197C10.8335 11.6884 10.9116 11.7883 10.9636 11.9195C11.0937 12.2319 11.2434 12.5553 11.4127 12.8896C11.5819 13.2238 11.7153 13.4785 11.8129 13.6534L11.9691 13.9252C12.1578 14.3001 12.3401 14.6249 12.5157 14.8998C12.6915 15.1747 12.8493 15.3887 12.9893 15.5418C13.1292 15.6949 13.2643 15.8151 13.3944 15.9026C13.5245 15.9902 13.6351 16.0339 13.7263 16.0339C13.8173 16.0339 13.9053 16.0181 13.9899 15.987C14.0028 15.9808 14.0191 15.9651 14.0386 15.9401C14.0582 15.9152 14.0972 15.8464 14.1558 15.734C14.2144 15.6216 14.2583 15.4747 14.2877 15.2935C14.317 15.1123 14.3478 14.8594 14.3804 14.5344C14.4129 14.2095 14.4129 13.8191 14.3804 13.3629C14.3675 13.1131 14.3381 12.885 14.2926 12.6789C14.247 12.4728 14.2015 12.329 14.1558 12.2478L14.0972 12.1352C13.9345 11.9228 13.658 11.7885 13.2674 11.7323C13.1828 11.7199 13.1992 11.6449 13.3164 11.5074C13.4269 11.3888 13.5506 11.295 13.6873 11.2264C14.0322 11.0639 14.81 10.9889 16.0205 11.0013C16.5543 11.0076 16.9936 11.0482 17.3385 11.1231C17.4685 11.1544 17.5777 11.1966 17.6655 11.2497C17.7532 11.3029 17.82 11.3778 17.8657 11.4746C17.9111 11.5715 17.9455 11.6715 17.9679 11.7745C17.9906 11.8777 18.0021 12.0198 18.0021 12.201C18.0021 12.3822 17.999 12.554 17.9924 12.7165C17.9857 12.8788 17.9778 13.0991 17.9679 13.3771C17.9582 13.6551 17.9534 13.9128 17.9534 14.1503C17.9534 14.219 17.9504 14.3501 17.9436 14.5439C17.937 14.7376 17.9356 14.8877 17.9386 14.9938C17.9419 15.1001 17.9534 15.2264 17.9728 15.3734C17.9924 15.5202 18.0297 15.6421 18.0852 15.7389C18.1404 15.8357 18.2136 15.9123 18.3047 15.9685C18.357 15.981 18.4122 15.9935 18.4708 16.006C18.5293 16.0186 18.6138 15.9842 18.7245 15.9029C18.8354 15.8216 18.9588 15.714 19.0956 15.5796C19.2321 15.4454 19.4014 15.236 19.6031 14.9518C19.805 14.6675 20.0262 14.3317 20.267 13.9443C20.6576 13.2945 21.0056 12.5917 21.3117 11.8357C21.3377 11.7732 21.3702 11.7184 21.4091 11.6717C21.4482 11.6248 21.484 11.592 21.5165 11.5733L21.5554 11.5451L21.6043 11.5217L21.7313 11.4935C21.816 11.4747 21.881 11.4733 21.9266 11.4888L24.7381 11.4701C24.9919 11.4389 25.2001 11.4466 25.363 11.4935C25.5256 11.5404 25.6264 11.5919 25.6655 11.6482L25.7237 11.7416C25.8734 12.1415 25.3853 13.0598 24.2593 14.4969C24.1031 14.6969 23.8917 14.9623 23.6248 15.2935C23.1173 15.9184 22.8242 16.3274 22.7461 16.5211C22.6357 16.7774 22.681 17.0304 22.8831 17.2803C22.9935 17.4115 23.2572 17.6678 23.6737 18.0489H23.6835L23.6934 18.0583L23.7031 18.0675L23.7225 18.0863C24.6401 18.9048 25.2618 19.5952 25.5871 20.1576Z" fill="#CABCAA"/>
</svg>
