<svg width="33" height="33" viewBox="0 0 33 33" fill="none" xmlns="http://www.w3.org/2000/svg">
<path fill-rule="evenodd" clip-rule="evenodd" d="M16.5 33C25.6127 33 33 25.6127 33 16.5C33 7.3873 25.6127 0 16.5 0C7.3873 0 0 7.3873 0 16.5C0 25.6127 7.3873 33 16.5 33ZM16.5179 7H19.6935C19.8885 7 20 7.07577 20 7.25345V25.7979C20 25.9242 19.9443 26 19.777 26H18.0497C17.9387 26 17.8551 25.8989 17.8551 25.8231V18.9573H16.4622L12.5904 25.8231C12.5347 25.9495 12.4232 26 12.256 26H10.2783C10.0558 26 9.91647 25.8232 10.0558 25.5949L14.3173 18.6028C12.0335 17.6908 10.752 15.8415 10.752 13.3336C10.752 9.15329 13.3981 7 16.5179 7ZM16.6851 17.3362H17.8551V8.62105H16.4343C14.7353 8.62105 13.0642 9.91287 13.0642 13.0801C13.0642 16.1201 14.8468 17.3362 16.6851 17.3362Z" fill="#CABCAA"/>
</svg>
