<svg width="30" height="24" viewBox="0 0 30 24" fill="none" xmlns="http://www.w3.org/2000/svg">
<path d="M6.57647 23.053L6.04122 15.5984C5.92579 14.0932 5.88749 13.0882 5.88749 12.5867C5.88749 11.1963 6.07825 9.92174 6.4613 8.76272C6.84333 7.60422 7.56985 6.32963 8.5645 5.01583C7.37883 5.01583 6.15537 5.28669 4.93165 5.86659C3.70793 6.44494 2.79065 7.10248 2.21659 7.83535C1.64405 8.56977 1.37643 9.30393 1.37643 10.076C1.37643 10.4235 1.49134 10.7707 1.6821 11.1576C1.94998 11.6594 2.06388 12.0453 2.06388 12.2772C2.06388 12.5086 2.02608 12.7026 1.87312 12.8571C1.72041 13.0113 1.52939 13.0498 1.33838 13.0498C0.994401 13.0498 0.726263 12.8953 0.458638 12.548C0.153219 12.1229 0 11.5433 0 10.8865C0 9.65063 0.49669 8.45368 1.41473 7.29518C2.36981 6.13693 3.63209 5.28669 5.27691 4.74549C6.30808 4.39802 7.83773 4.16559 9.82602 4.01211C10.3608 3.97367 10.9351 3.93472 11.4703 3.85784C10.0939 5.90451 9.2139 7.60396 8.79331 8.95516C8.37298 10.3451 8.18171 12.1995 8.18171 14.5171C8.18171 16.2939 8.25883 17.916 8.44984 19.3835L11.3557 16.2544L13.8406 13.6673C16.4025 11.0023 18.1224 8.95516 19.0019 7.411C19.6523 6.29016 19.9958 5.24774 19.9958 4.32037C19.9958 3.77994 19.8821 3.23977 19.6523 2.62144C19.4991 2.19657 19.4225 1.92623 19.4225 1.69458C19.4225 1.42398 19.4991 1.19181 19.7281 0.960422C19.9191 0.767724 20.1868 0.651642 20.4554 0.651642C20.8372 0.651642 21.1812 0.883033 21.4501 1.26946C21.7169 1.69458 21.8318 2.31266 21.8318 3.16212C21.8318 4.01211 21.6786 4.86157 21.3349 5.82712C20.9904 6.75372 20.2639 7.95118 19.1556 9.38028C18.0075 10.8096 16.2868 12.7407 13.9934 15.0964C11.5467 17.6069 9.06145 20.2719 6.57673 23.0525L6.57647 23.053Z" fill="#C12032"/>
<path d="M18.3401 18.6334L16.9861 19.6601L17.4933 18.0181L16.1401 17.0265H17.8326L18.3401 15.3857L18.848 17.0265H20.5406L19.1866 18.0181L19.694 19.6601L18.3401 18.6334Z" fill="#FAB72C"/>
<path d="M22.5574 14.6481L21.1703 15.6738L21.7119 14.0329L20.3235 13.0413H22.016L22.5574 11.3994L23.0648 13.0413H24.7574L23.4042 14.0329L23.9126 15.6738L22.5574 14.6481Z" fill="#FAB72C"/>
<path d="M25.8926 9.6092L24.5046 10.6018L25.047 8.99422L23.6586 7.96753H25.3854L25.8926 6.36069L26.401 7.96753H28.0943L26.7393 8.99422L27.2465 10.6018L25.8926 9.6092Z" fill="#FAB72C"/>
<path d="M27.6634 3.24928L26.3107 4.27494L26.8179 2.63353L25.4639 1.64167H27.1562L27.6634 0L28.1718 1.64167H29.8984L28.5099 2.63353L29.0508 4.27494L27.6634 3.24928Z" fill="#FAB72C"/>
<path d="M13.4824 22.8604L12.095 23.8863L12.6369 22.2454L11.2482 21.2528H12.9402L13.4824 19.6109L13.99 21.2528H15.6826L14.3294 22.2454L14.8376 23.8863L13.4824 22.8604Z" fill="#FAB72C"/>
</svg>
