<?xml version="1.0" standalone="no"?>
<!DOCTYPE svg PUBLIC "-//W3C//DTD SVG 20010904//EN"
 "http://www.w3.org/TR/2001/REC-SVG-20010904/DTD/svg10.dtd">
<svg version="1.0" xmlns="http://www.w3.org/2000/svg"
 width="96.000000pt" height="96.000000pt" viewBox="0 0 96.000000 96.000000"
 preserveAspectRatio="xMidYMid meet">
<metadata>
Created by potrace 1.11, written by Peter Selinger 2001-2013
</metadata>
<g transform="translate(0.000000,96.000000) scale(0.100000,-0.100000)"
fill="#000000" stroke="none">
<path d="M0 480 l0 -480 480 0 480 0 0 480 0 480 -480 0 -480 0 0 -480z m884
290 c19 -1 20 -2 4 -14 -12 -8 -15 -20 -11 -37 6 -22 5 -23 -11 -10 -14 12
-21 12 -37 3 -18 -11 -19 -10 -13 12 4 17 0 27 -13 35 -17 10 -16 10 4 11 14
0 24 8 29 23 l7 22 10 -22 c6 -13 19 -23 31 -23z m-210 -9 c22 -78 -27 -170
-181 -332 -54 -58 -133 -141 -175 -187 l-77 -82 -7 57 c-4 32 -8 121 -8 198
-1 137 0 141 29 195 16 30 31 58 33 62 2 3 -16 2 -40 -4 -64 -14 -127 -54
-145 -93 -14 -30 -15 -40 -3 -75 12 -35 12 -43 0 -50 -21 -13 -50 18 -50 53 0
17 10 51 21 75 36 73 110 110 257 128 l53 6 -30 -50 c-51 -87 -61 -131 -61
-269 l0 -127 31 30 c82 76 261 283 280 322 18 36 21 54 15 106 -7 68 -3 78 28
74 13 -2 24 -15 30 -37z m160 -171 c20 -1 20 -1 3 -15 -14 -10 -17 -20 -11
-37 6 -21 5 -22 -10 -9 -14 12 -21 12 -38 2 -17 -11 -19 -10 -16 7 2 10 -3 26
-11 35 -12 15 -11 17 7 17 13 0 23 9 28 23 l7 22 10 -22 c6 -13 19 -23 31 -23z
m-100 -140 c18 0 22 -15 6 -25 -5 -3 -10 -15 -10 -26 0 -16 -3 -18 -19 -9 -13
7 -22 7 -26 0 -10 -16 -25 -12 -18 5 3 9 -3 25 -12 35 -18 19 -17 20 8 20 19
0 27 5 27 18 1 16 1 16 14 0 7 -10 21 -18 30 -18z m-121 -120 c17 0 18 -2 6
-17 -8 -9 -12 -25 -11 -37 3 -17 2 -18 -11 -7 -12 9 -21 10 -37 1 -20 -11 -21
-10 -15 10 5 15 1 26 -12 35 -17 14 -17 14 5 15 16 0 26 7 30 22 l5 22 10 -22
c6 -12 19 -22 30 -22z m-140 -120 c17 0 18 -2 6 -17 -8 -9 -12 -25 -11 -37 3
-17 2 -18 -11 -7 -12 9 -21 10 -35 2 -17 -9 -19 -8 -15 10 4 12 -1 25 -13 34
-18 14 -18 14 4 15 16 0 26 7 30 22 l5 22 10 -22 c6 -12 19 -22 30 -22z"/>
</g>
</svg>
